<svg xmlns="http://www.w3.org/2000/svg" viewBox="-43 0 511 512"><path d="M397 357c-17-15-37-26-60-32 14-7 27-17 36-28 11-14 15-30 13-46-3-17-14-33-32-46-12-9-27-15-43-18 10-7 18-14 23-23 7-11 9-25 5-38-6-21-28-38-57-45 4-3 7-7 9-11 6-10 7-21 4-31-6-21-31-37-63-39l-36 5-15 2-43 5c-24 3-45 14-56 31-8 12-10 25-6 37 7 23 35 38 68 38 7 0 14 0 22-2l69-14 18-5h4c31 2 57 17 63 35 2 8 1 15-3 22-9 14-31 27-59 32l-92 19a121 121 0 0 1-61-4c-17-6-28-16-31-28l-2-10a10 10 0 1 0-20-1l2 17c6 18 21 32 42 40-12 7-23 15-31 25a60 60 0 0 0-16 48c4 21 16 35 34 45-19 7-41 17-57 32a75 75 0 0 0-25 53c0 29 15 52 46 68 24 13 57 20 93 21l141 1h2c48 0 91-16 118-42 16-16 25-34 25-54 0-21-11-42-29-59zM231 83l-69 14-18 2c-26 0-45-12-49-25-2-6-1-13 4-20 8-12 23-20 41-22l43-5 17-3 30-4h1c22 2 41 12 45 24 2 6 1 11-2 15-4 8-14 14-27 19l-16 5zM69 289c-3-22 18-47 51-60l11-2a136 136 0 0 0 39-2l92-19c29-5 59 0 81 16 13 9 21 20 23 32 2 13-4 24-9 31-15 19-44 33-77 36l-111 10c-44 4-94-7-100-42zm318 167c-23 22-63 36-105 36l-142-1c-32-1-62-7-84-19-24-12-35-29-35-50 0-16 10-30 19-38 23-21 61-32 74-36a177 177 0 0 0 57 3l111-10c39-4 76 8 101 31 15 13 23 29 23 44 0 14-7 28-19 40zm0 0"/><path d="M315 452h-1a10 10 0 0 0 2 20h1a10 10 0 0 0-2-20zm0 0M381 420c-5-3-11-1-13 4s-9 11-14 15l-13 6a10 10 0 0 0 8 19l16-9c3-2 16-11 21-22 2-5 0-11-5-13zm0 0M67 142a10 10 0 0 0 14-1h1a10 10 0 0 0-15-14c-4 5-4 11 0 15zm0 0M310 297l4-1c5-2 11-5 16-9 2-1 15-10 21-22a10 10 0 1 0-18-8l-14 14-13 7a10 10 0 0 0 4 19zm0 0"/></svg>