<svg xmlns="http://www.w3.org/2000/svg" viewBox="0 0 512 511"><path d="M504 103h-42a43 43 0 0 0 6-40l-13-34a43 43 0 0 0-59-24L296 52c-5-3-11-5-18-5h-44c-7 0-13 2-18 5L116 5a43 43 0 0 0-59 24L44 63a43 43 0 0 0 6 40H8c-4 0-8 3-8 8v57a8 8 0 0 0 16 0v-49h57l67 19c-15 22-28 46-39 71H16v-10a8 8 0 0 0-16 0v18c0 4 4 7 8 7h28v280c0 5 4 8 8 8h424c4 0 8-3 8-8v-46a8 8 0 0 0-16 0v38H303V229c23 43 38 89 45 136a8 8 0 0 0 14 4c11-15 22-31 32-48l46 36a8 8 0 0 0 13-7c-7-43-18-85-35-126h42v203a8 8 0 1 0 16 0V224h28c4 0 8-3 8-7V111c0-5-4-8-8-8zM403 19c7-3 15-4 22-1s13 9 15 16l13 34c3 7 2 15-1 22-4 7-10 12-18 14l-125 35v-38c28-17 98-53 116-28a8 8 0 1 0 13-10c-14-19-42-20-85-2-18 7-34 16-44 22v-6c0-5-1-9-3-12zM234 62h44c8 0 15 7 15 15v65c0 8-7 14-15 14h-44c-8 0-15-6-15-14V77c0-8 7-15 15-15zm-14 147l25-37h22l25 37zM60 90c-3-7-4-15-1-22l13-34c2-7 8-13 15-16s15-2 22 1l97 46c-2 3-3 7-3 12v6c-10-6-27-15-45-22-43-18-71-17-85 2a8 8 0 1 0 13 10c18-25 90 11 117 28v38L78 104c-8-2-14-7-18-14zm147 66c4 8 11 13 19 15-37 52-62 111-74 173-9-12-17-25-24-38a8 8 0 0 0-11-3l-39 28c13-67 40-132 78-189zM52 224h42c-17 41-28 83-35 126a8 8 0 0 0 13 7l46-36c10 17 21 33 32 48a8 8 0 0 0 14-4c7-47 22-93 45-136v267H52zm172 272V224h64v272zm171-193a8 8 0 0 0-11 3c-7 13-15 26-24 38-12-62-37-121-74-173 8-2 15-7 19-15l51-14c38 57 65 122 78 189l-39-28zm101-94h-85c-11-25-24-49-39-71l67-19h57zm0 0"/></svg>
