<svg xmlns="http://www.w3.org/2000/svg" viewBox="0 -51 512 512"><path d="M408 78a10 10 0 1 0-14-14 10 10 0 0 0 14 14zm0 0M130 99a10 10 0 1 0-14-15 10 10 0 0 0 14 15zm0 0M72 156l30-30a10 10 0 1 0-15-14l-30 30a10 10 0 0 0 15 14zm0 0M441 127a10 10 0 0 0 15-14l-20-20a10 10 0 0 0-15 14zm0 0"/><path d="M509 116L396 3c-4-4-10-4-14 0l-51 47v1a42 42 0 0 1-31 14c-24 0-43 7-58 21a74 74 0 0 0-47-20l-50-50c-4-4-10-4-14 0L3 144c-4 4-4 10 0 14l83 84-3 3a35 35 0 0 0 25 60 35 35 0 0 0 35 35 35 35 0 0 0 36 36c0 9 3 18 10 25 14 13 36 13 49 0l4-4 4 4a35 35 0 0 0 59-25 35 35 0 0 0 36-36 35 35 0 0 0 35-35 35 35 0 0 0 25-60l-3-3 111-112c4-4 4-10 0-14zM24 151L138 37l39 39L63 190zm73 129c-6-5-6-15 0-21l35-35a15 15 0 0 1 22 21l-36 35c-6 6-15 6-21 0zm35 36c-5-6-5-16 0-21l36-36a15 15 0 1 1 21 21l-35 36c-6 6-16 6-22 0zm36 35c-6-6-6-15 0-21l35-35a15 15 0 0 1 21 21l-35 35c-6 6-15 6-21 0zm35 36c-6-6-6-16 0-22l35-35a15 15 0 1 1 22 21l-36 36c-6 5-15 5-21 0zm78 0c-6 5-15 5-21 0l-4-4 18-18 3-3 4 3c6 6 6 16 0 22zm106-107c-6 6-15 6-21 0l-46-45a10 10 0 0 0-14 14l46 46a15 15 0 1 1-22 21l-46-46a10 10 0 0 0-14 14l46 46a15 15 0 0 1-10 26c-10 0-13-8-22-16a35 35 0 0 0-35-34 35 35 0 0 0-36-36c1-19-15-35-35-35 0-10-4-19-10-25a35 35 0 0 0-50 0l-17 17-24-23L194 86c15 2 25 6 34 14l-28 28a40 40 0 0 0 56 57l28-28 103 102c6 6 6 16 0 21zm-4-53l-84-84 7-7a10 10 0 1 0-15-15l-49 50a20 20 0 0 1-28-28l40-41c12-12 26-17 46-17 14 0 26-5 38-14l99 103-54 53zm69-68L353 58l36-34 99 99zm0 0"/></svg>