<svg xmlns="http://www.w3.org/2000/svg" viewBox="0 0 581 581">
  <path d="M329 368a97 97 0 1 0 194 0 97 97 0 0 0-194 0zm97-77a77 77 0 1 1 0 154 77 77 0 0 1 0-154zm0 0M371 562h111v19H371zm0 0M329 523h194v19H329zm0 0M116 523h20v19h-20zm0 0M58 542h20v20H58zm0 0"/>
  <path d="M117 468c51-88 83-185 94-286l90 89a10 10 0 0 0 15-2c18-37 11-81-18-109l-8-8h68a10 10 0 0 0 10-13 95 95 0 0 0-90-65h-13l49-48a10 10 0 0 0-3-16 95 95 0 0 0-109 18l-9 9-9 10-8-10-9-9A95 95 0 0 0 57 10a10 10 0 0 0-2 16l48 48H90c-40 0-76 26-89 65a10 10 0 0 0 9 13h68l-8 8a95 95 0 0 0-18 109 10 10 0 0 0 16 2l84-83c-11 93-46 181-102 256-13-4-26-6-39-8l-6-1-2 19 5 1c10 1 20 3 29 6l-6 7 15 12c75-88 119-198 127-313l11-11 9 8A708 708 0 0 1 70 508l16 11 21-34c46 22 86 53 118 92l15-12c-19-23-41-44-65-61h406v-20H147l-30-16zm187-221L201 145c27-7 55 0 74 19l10 9c19 20 26 48 19 74zm40-115h-80c-19-9-40-11-60-7 14-20 36-31 61-31h13c27-1 52 14 66 38zM206 51l9-10c20-19 48-26 74-19l-57 58c-19 7-35 19-46 36-4-24 3-48 20-65zm-53-10l9 10 11 14c-4 11-7 21-7 33-9-8-19-14-30-18L79 22c26-7 55 0 74 19zM90 94h14c24 0 47 11 61 31-20-4-41-2-60 7H25c13-24 38-38 65-38zM65 247c-8-26-1-54 19-74l9-9a74 74 0 0 1 74-19zm0 0"/>
</svg>
