<svg xmlns="http://www.w3.org/2000/svg" version="1" viewBox="0 0 480 480"><path d="M472 380h-9a56 56 0 0 0-10-88 56 56 0 0 0-29-104h-72v-56a8 8 0 0 0-9-8l-95 15v-8c19-4 32-20 32-39 0-35-33-68-34-70-3-3-9-3-12 0-1 2-34 35-34 70 0 19 13 35 32 39v10l-97 15c-4 1-7 4-7 8v89c-6-6-13-12-20-16h-8a88 88 0 0 0-43 65 87 87 0 0 0-28-1c-2 0-5 2-6 4-16 39-4 83 30 107H0v16h19l14 28c1 2 4 4 7 4h304c4 0 8-4 8-8v-24h51l14 28c1 2 4 4 7 4h32c4 0 8-4 8-8v-24h8c4 0 8-4 8-8v-32c0-4-4-8-8-8zm-8-40c0 22-18 40-40 40H280a40 40 0 0 1 0-80h104a24 24 0 1 1 0 48h-80a8 8 0 0 1 0-16h56v-16h-56a24 24 0 1 0 0 48h80c22 0 40-18 40-40 0-9-3-17-8-24h8c22 0 40 18 40 40zm-64-136a24 24 0 1 1 0 48h-80a8 8 0 0 1 0-16h56v-16h-56a24 24 0 1 0 0 48h80a40 40 0 0 0 33-63 40 40 0 0 1-9 79H312a40 40 0 0 1 0-80h88zM216 92c0-20 15-42 24-52 9 10 24 31 24 52 0 10-6 19-16 23v-15h-16v15c-10-4-16-13-16-23zM104 253c18 12 29 32 32 53-12 5-23 12-32 22-9-10-20-17-32-22 3-21 14-41 32-53zm40 67a72 72 0 0 1 28-4 72 72 0 0 1-72 96c-13-38 7-79 44-92zM32 340c0-8 1-16 4-24h4c21 0 40 9 54 25a87 87 0 0 0-11 68c-31-10-51-37-51-69zm131 104H45l-8-16h134l-8 16zm77 0h-59l8-16h19v-16h-54c35-24 47-68 31-107-1-2-4-4-6-4-10-1-19-1-28 1-1-9-4-18-8-26h1V171l192-30v47h-24a56 56 0 0 0-39 96 56 56 0 0 0-32 96h-9c-4 0-8 4-8 8v32c0 4 4 8 8 8h8v16zm35 0h-19v-16h27l-8 16zm61 0h-43l8-16h35v16zm112 0h-19l-8-16h27v16zm16-32H240v-16h224v16z"/><path d="M160 188h16v64h-16zM160 268h16v16h-16z"/></svg>