<svg xmlns="http://www.w3.org/2000/svg" viewBox="0 0 160 46"><path fill="#fff" d="M35.1 22.7a7.3 7.3 0 0 1 3.3-5.9 6.8 6.8 0 0 0-5.6-3c-2.4-.2-4.7 1.4-5.9 1.4s-3.1-1.4-5.1-1.4a7.3 7.3 0 0 0-6.3 3.8c-2.7 4.7-.7 11.7 1.9 15.5 1.3 1.9 2.8 4 4.8 3.9s2.7-1.2 5-1.2 3 1.2 5.1 1.2 3.4-1.9 4.7-3.8a13.9 13.9 0 0 0 2.1-4.4 6.5 6.5 0 0 1-4-6.1zM31.3 11.3a6.6 6.6 0 0 0 1.6-4.9 7.5 7.5 0 0 0-4.5 2.3 6.4 6.4 0 0 0-1.6 4.7 5.5 5.5 0 0 0 4.5-2.1zM63.4 36.9h-2.7l-1.5-4.7H54l-1.4 4.7h-2.7l5.1-16h3.2zm-4.7-6.7L57.4 26c-.1-.4-.4-1.4-.8-3-.2.7-.4 1.7-.8 3l-1.3 4.2zM76.6 30.9a6.5 6.5 0 0 1-1.6 4.7 4.5 4.5 0 0 1-3.5 1.5 3.6 3.6 0 0 1-3.3-1.6v6.1h-2.6V29.1c0-1.2 0-2.5-.1-3.8h2.3v1.8a4.4 4.4 0 0 1 4-2.1 4.1 4.1 0 0 1 3.4 1.6 6.4 6.4 0 0 1 1.4 4.3zM74 31a4.9 4.9 0 0 0-.8-2.8 2.5 2.5 0 0 0-2.2-1.1 2.8 2.8 0 0 0-2.7 2.3 2.5 2.5 0 0 0-.1.8v1.9a3.2 3.2 0 0 0 .8 2.1 2.5 2.5 0 0 0 2 .9 2.8 2.8 0 0 0 2.3-1.1 5.3 5.3 0 0 0 .7-3zM89.9 30.9a6.5 6.5 0 0 1-1.6 4.7 4.5 4.5 0 0 1-3.5 1.5 3.6 3.6 0 0 1-3.3-1.6v6.1h-2.6V29.1c0-1.2 0-2.5-.1-3.8H81v1.8a4.3 4.3 0 0 1 4-2.1 4.1 4.1 0 0 1 3.4 1.6 6.4 6.4 0 0 1 1.5 4.3zm-2.6.1a4.9 4.9 0 0 0-.8-2.8 2.5 2.5 0 0 0-2.2-1.1 2.7 2.7 0 0 0-1.7.6 3.2 3.2 0 0 0-1 1.7 2.5 2.5 0 0 0-.1.8v1.9a3.2 3.2 0 0 0 .8 2.1 2.5 2.5 0 0 0 2 .9 2.8 2.8 0 0 0 2.3-1.1 6.3 6.3 0 0 0 .7-3zM104.7 32.4a4.2 4.2 0 0 1-1.4 3.3 6.4 6.4 0 0 1-4.4 1.4 7.1 7.1 0 0 1-4.1-1l.6-2.1a6.9 6.9 0 0 0 3.7 1 3.3 3.3 0 0 0 2.3-.7 2.2 2.2 0 0 0 .8-1.8 1.9 1.9 0 0 0-.7-1.6 5.5 5.5 0 0 0-2.2-1.2c-2.8-1-4.2-2.6-4.2-4.6a3.9 3.9 0 0 1 1.5-3.2 6.1 6.1 0 0 1 3.9-1.3 7.4 7.4 0 0 1 3.6.8l-.6 2.1a6.2 6.2 0 0 0-3.1-.7 2.8 2.8 0 0 0-2.1.7 2 2 0 0 0-.6 1.5 2 2 0 0 0 .7 1.6 6.8 6.8 0 0 0 2.3 1.2 8.2 8.2 0 0 1 3 1.9 3.5 3.5 0 0 1 1 2.7zM113.2 27.2h-2.8v5.6q0 2.1 1.5 2.1h1.1v1.9a5.6 5.6 0 0 1-2 .3 3.2 3.2 0 0 1-2.4-.9 4.4 4.4 0 0 1-.9-3.1v-5.9H106v-1.9h1.7v-2.1l2.5-.8v2.9h2.8zM125.9 31a6.5 6.5 0 0 1-1.5 4.4 5.4 5.4 0 0 1-4.2 1.8 5.1 5.1 0 0 1-4-1.7 6.1 6.1 0 0 1-1.5-4.3 6 6 0 0 1 1.6-4.4 5.4 5.4 0 0 1 4.2-1.7 5.3 5.3 0 0 1 4.1 1.7 6.2 6.2 0 0 1 1.3 4.2zm-2.6.1a4.5 4.5 0 0 0-.7-2.7 2.6 2.6 0 0 0-4.6 0 5.1 5.1 0 0 0-.7 2.8 4.5 4.5 0 0 0 .7 2.7 2.6 2.6 0 0 0 4.6 0 6.4 6.4 0 0 0 .7-2.8zM134.3 27.6h-.8a2.4 2.4 0 0 0-2.1 1 4.1 4.1 0 0 0-.6 2.3V37h-2.6v-8c0-1.3 0-2.5-.1-3.6h2.2v2.2h.1a3.5 3.5 0 0 1 1.3-1.8 3.3 3.3 0 0 1 1.9-.6h.6zM145.7 30.5a4.5 4.5 0 0 1-.1 1.2h-7.7a3.3 3.3 0 0 0 1.1 2.6 3.9 3.9 0 0 0 2.5.8 10.1 10.1 0 0 0 3.1-.5l.4 1.8a9.4 9.4 0 0 1-3.9.7 5.4 5.4 0 0 1-4.2-1.6 6 6 0 0 1-1.5-4.2 6.7 6.7 0 0 1 1.4-4.3 5 5 0 0 1 4-1.9 4.2 4.2 0 0 1 3.8 1.9 5.1 5.1 0 0 1 1.1 3.5zm-2.4-.6a4.2 4.2 0 0 0-.5-2 2.2 2.2 0 0 0-2-1.1 2.3 2.3 0 0 0-2 1 4.4 4.4 0 0 0-.8 2zM51.1 7.7l.9-.4 1.2-.2a3.2 3.2 0 0 1 1.8.5 1.9 1.9 0 0 1 .7 1.4 1.6 1.6 0 0 1-.4 1.2 4.1 4.1 0 0 1-1.1.7l.7.2.6.4.4.6a1.7 1.7 0 0 1 .1.7 2 2 0 0 1-.3 1.1l-.7.7-.9.4H52l-1-.4.3-1 .8.3h1a1.5 1.5 0 0 0 1.2-.4 1.2 1.2 0 0 0 .4-1 1.4 1.4 0 0 0-.2-.7 1 1 0 0 0-.5-.4l-.6-.2h-1.2v-1h1.2c.2-.1.4-.1.5-.3s.3-.2.4-.4a.9.9 0 0 0 .1-.5.8.8 0 0 0-.4-.8 1.5 1.5 0 0 0-1-.3h-.9l-.8.3zM61.1 15.1v-.7a2 2 0 0 1-1.7.8h-.7a1 1 0 0 1-.5-.4 1 1 0 0 1-.4-.5 1.5 1.5 0 0 1-.1-.7 1.8 1.8 0 0 1 .9-1.6 4.3 4.3 0 0 1 2.4-.5c0-.7-.4-1.1-1.2-1.1a2.4 2.4 0 0 0-1.5.4l-.3-1a3.8 3.8 0 0 1 1.9-.5c1.5 0 2.2.8 2.2 2.3v2.1a5.7 5.7 0 0 0 .1 1.4zm-.1-2.8a3.5 3.5 0 0 0-1.6.3.9.9 0 0 0-.5.9 1.4 1.4 0 0 0 .2.7c.1.2.4.2.6.2h.5l.4-.2.3-.4a.7.7 0 0 0 .1-.5zM68.2 9.4v1h-2.4V15h-1.3V9.3h3.7zM75.5 12.2a3.7 3.7 0 0 1-.2 1.2 3.1 3.1 0 0 1-.5 1 1.6 1.6 0 0 1-.8.6l-1 .2a1.8 1.8 0 0 1-1.6-.8v3H70v-8h1.1v.9a2.1 2.1 0 0 1 1.9-1l.9.2a1.3 1.3 0 0 1 .7.6 4.1 4.1 0 0 1 .5.9 4.2 4.2 0 0 1 .4 1.2zm-1.3 0a2.2 2.2 0 0 0-.1-.8l-.3-.6a1 1 0 0 0-.5-.4h-1.1l-.4.3-.3.5a1.3 1.3 0 0 0-.1.6v.9a1.3 1.3 0 0 0 .1.6l.3.5.4.3h.6a1.4 1.4 0 0 0 1.1-.5 2.2 2.2 0 0 0 .3-1.4zM82.2 9.4l-1.4 3.9a17.4 17.4 0 0 1-1 2.3 4.8 4.8 0 0 1-.9 1.3 2.7 2.7 0 0 1-1.4.7l-.3-1.1.9-.5a3.1 3.1 0 0 0 .7-.9.4.4 0 0 0 .1-.3v-.3l-2.2-5.2h1.4l1.1 3.2c.1.1.1.3.2.5s.1.4.2.6a4.3 4.3 0 0 0 .1-.5 2.5 2.5 0 0 1 .2-.7l1-3.2 1.3.2zM84.4 11.8h.6l1-.2a.7.7 0 0 0 .3-.6.9.9 0 0 0-.3-.6l-.8-.2h-.7l-.6.3-.3-.8 1-.4h1.8c.3.1.5.1.7.3a1.2 1.2 0 0 1 .5.5 1.4 1.4 0 0 1 .2.7.9.9 0 0 1-.1.5l-.3.4-.4.3h.1l.5.3c.1.1.3.2.3.4a.9.9 0 0 1 .1.5 1.9 1.9 0 0 1-.2.8l-.6.5-.8.3h-1.9l-.9-.3.3-.8.7.3h.8a1.5 1.5 0 0 0 1-.3.9.9 0 0 0 .3-.6c0-.2 0-.3-.1-.4l-.3-.3h-1.7v-.9zM91.1 9.4v3.2a4.9 4.9 0 0 1-.1 1.2l.4-.9.4-.9 1.4-2.7H95V15h-1.2v-3.3a6.2 6.2 0 0 1 .1-1.3h-.1a3.9 3.9 0 0 1-.4.9c-.1.3-.3.5-.4.8s-.5.9-.7 1.4a10 10 0 0 1-.8 1.4h-1.6V9.2h1.2zM101.6 9.4v1h-1.7V15h-1.2v-4.6H97v-1zM108 12v.6h-3.8a1.5 1.5 0 0 0 .5 1.2 1.7 1.7 0 0 0 1.3.4 3.3 3.3 0 0 0 1.5-.3l.2.9a5.3 5.3 0 0 1-1.9.4l-1.2-.2a2.4 2.4 0 0 1-.9-.6 3.5 3.5 0 0 1-.6-.9 4.3 4.3 0 0 1-.2-1.2 4.3 4.3 0 0 1 .2-1.2 3.1 3.1 0 0 1 .5-1 1.6 1.6 0 0 1 .8-.6 2 2 0 0 1 1.1-.2l1 .2a1.8 1.8 0 0 1 .7.5 1.9 1.9 0 0 1 .5.9 1.4 1.4 0 0 1 .3 1.1zm-1.2-.3a2 2 0 0 0-.3-1.1 1.2 1.2 0 0 0-1.8 0 1.8 1.8 0 0 0-.4 1.1zM113.1 9.5h2.8l.8.2.7.4a1.1 1.1 0 0 1 .3.8.9.9 0 0 1-.1.5c-.1.1-.1.3-.3.4l-.4.3h-.4l1 .4a1 1 0 0 1 .4.9 1.2 1.2 0 0 1-.3.9l-.8.5-1 .2h-2.6V9.5zm1.2 2.2h1.7l.3-.2c.1-.1.1-.2.1-.4a.7.7 0 0 0-.3-.6 2.2 2.2 0 0 0-1-.2h-.7zm0 2.5h1.8l.4-.3a.6.6 0 0 0 .1-.4.8.8 0 0 0-.4-.7l-1.2-.2h-.7v1.7z"/></svg>