<svg xmlns="http://www.w3.org/2000/svg" viewBox="0 0 524.5 156"><path fill="#ff4800" d="M0,60.3C77,10.6,161.7-7.5,252.2,2.7S421.7,49.6,489.5,112.1c1.3-2.4,2.4-4.5,3.7-6.6,2.7-4.5,5.1-9.2,8.2-13.4s7.6-2.9,9,1.5c4.6,14.2,9.1,28.4,13.6,42.7,1.2,3.7.5,6.4-3.8,7.5-15.3,4-30.5,8.3-45.8,11.9-3.4.8-7.4-.4-10.9-1.3-1.3-.3-3.1-2.7-2.9-3.7s1.9-5.5,3.9-6.7c7.5-4.6,12.7-10.7,17-18.2,2.1-3.7,1.8-6.3-1.4-8.9-15.4-12.3-30.4-25.3-46.4-36.9-26.5-19.3-55.5-34.1-86.2-46.1A381.5,381.5,0,0,0,258,10.8a407.9,407.9,0,0,0-112,.9A432.8,432.8,0,0,0,5.6,57.9a8.6,8.6,0,0,1-1.6,1Z"/></svg>
