<svg xmlns="http://www.w3.org/2000/svg" viewBox="0 0 160 46"><defs><linearGradient id="a" x1="25.26" x2="5.14" y1="379.54" y2="399.65" gradientTransform="translate(0 -370)" gradientUnits="userSpaceOnUse"><stop offset="0" stop-color="#00a0ff"/><stop offset=".01" stop-color="#00a1ff"/><stop offset=".26" stop-color="#00beff"/><stop offset=".51" stop-color="#00d2ff"/><stop offset=".76" stop-color="#00dfff"/><stop offset="1" stop-color="#00e3ff"/></linearGradient><linearGradient id="b" x1="39.62" x2="10.6" y1="393" y2="393" gradientTransform="translate(0 -370)" gradientUnits="userSpaceOnUse"><stop offset="0" stop-color="#ffe000"/><stop offset=".41" stop-color="#ffbd00"/><stop offset=".78" stop-color="orange"/><stop offset="1" stop-color="#ff9c00"/></linearGradient><linearGradient id="c" x1="28.84" x2="1.55" y1="395.76" y2="423.05" gradientTransform="translate(0 -370)" gradientUnits="userSpaceOnUse"><stop offset="0" stop-color="#ff3a44"/><stop offset="1" stop-color="#c31162"/></linearGradient><linearGradient id="d" x1="7.79" x2="19.98" y1="369.25" y2="381.43" gradientTransform="translate(0 -370)" gradientUnits="userSpaceOnUse"><stop offset="0" stop-color="#32a071"/><stop offset=".07" stop-color="#2da771"/><stop offset=".48" stop-color="#15cf74"/><stop offset=".8" stop-color="#06e775"/><stop offset="1" stop-color="#00f076"/></linearGradient></defs><path fill="#fff" d="M80.8 25.1a5 5 0 0 0-5.1 5.1 5.1 5.1 0 1 0 10.2 0 5 5 0 0 0-5.1-5.1zm0 8.2a3 3 0 0 1-2.9-3.1 3 3 0 0 1 2.9-3.1 3 3 0 0 1 2.9 3.1 3.1 3.1 0 0 1-2.9 3.1zm-11.2-8.2a5 5 0 0 0-5.1 5.1 5.1 5.1 0 1 0 10.2 0 5 5 0 0 0-5.1-5.1zm0 8.2a3 3 0 0 1-2.9-3.1 3 3 0 0 1 2.9-3.1 3.1 3.1 0 0 1 0 6.2zm-13.3-6.6v2.2h5.2a4.8 4.8 0 0 1-1.2 2.7 5.2 5.2 0 0 1-4 1.6 5.8 5.8 0 0 1 0-11.6 5.8 5.8 0 0 1 3.9 1.5l1.5-1.5a7.7 7.7 0 0 0-5.4-2.2 7.9 7.9 0 1 0 0 15.8 7 7 0 0 0 7.4-7.3 6.1 6.1 0 0 0-.1-1.4h-7.3zm54.3 1.6a4.7 4.7 0 0 0-4.4-3.2 4.9 4.9 0 0 0-4.8 5.1 5 5 0 0 0 5.1 5.1 5.1 5.1 0 0 0 4.3-2.3l-1.7-1.2a3.1 3.1 0 0 1-2.5 1.4 2.6 2.6 0 0 1-2.5-1.5l6.8-2.8zm-6.9 1.7a2.8 2.8 0 0 1 2.7-3 1.9 1.9 0 0 1 1.9 1.1zm-5.6 5h2.2V20h-2.2zm-3.6-8.8a3.8 3.8 0 0 0-2.8-1.1 5.1 5.1 0 0 0 0 10.2 3.3 3.3 0 0 0 2.7-1.2h.1v.7c0 1.9-1 3-2.7 3a2.9 2.9 0 0 1-2.6-1.8l-2 .8a4.8 4.8 0 0 0 4.5 3c2.6 0 4.9-1.5 4.9-5.3v-9.1h-2.1zm-2.6 7.1a2.9 2.9 0 0 1-2.8-3.1 2.9 2.9 0 0 1 2.8-3.1 2.9 2.9 0 0 1 2.7 3.1 2.9 2.9 0 0 1-2.7 3.1zM121.1 20h-5.4v15h2.2v-5.7h3.1a4.7 4.7 0 0 0 4.9-4.7 4.6 4.6 0 0 0-4.8-4.6zm.1 7.2H118v-5.1h3.2a2.6 2.6 0 1 1 0 5.1zm13.8-2.1a4.2 4.2 0 0 0-4 2.3l2 .8a2.1 2.1 0 0 1 2-1.1 2.2 2.2 0 0 1 2.4 1.9v.2a5.4 5.4 0 0 0-2.3-.6c-2.1 0-4.3 1.2-4.3 3.4a3.5 3.5 0 0 0 3.7 3.3 3.3 3.3 0 0 0 2.9-1.5h.1V35h2.2v-5.7c-.1-2.7-2.1-4.2-4.7-4.2zm-.2 8.2c-.7 0-1.8-.4-1.8-1.3s1.3-1.6 2.4-1.6a3.7 3.7 0 0 1 2 .5 2.6 2.6 0 0 1-2.6 2.4zm12.7-7.9l-2.6 6.5h-.1l-2.7-6.5h-2.4l4 9.1-2.3 5h2.3l6.2-14.1zM127.3 35h2.2V20h-2.2z"/><path fill="url(#a)" d="M11.6 8.1a2.1 2.1 0 0 0-.6 1.7v26.5a2.4 2.4 0 0 0 .6 1.7h.1l14.9-14.7v-.5l-15-14.7z"/><path fill="url(#b)" d="M31.5 28.1l-5-4.9v-.4l5-4.9h.1l5.9 3.3c1.7 1 1.7 2.5 0 3.5L31.6 28z"/><path fill="url(#c)" d="M31.6 28.1L26.5 23 11.6 37.9a1.9 1.9 0 0 0 2.5.1l17.5-9.9"/><path fill="url(#d)" d="M31.6 17.9L14 8a1.9 1.9 0 0 0-2.5.1l15 14.9z"/><path d="M31.5 27.9L14 37.8a1.9 1.9 0 0 1-2.4 0 2.1 2.1 0 0 0 2.4.2l17.5-9.9z" opacity=".2" style="isolation:isolate"/><path d="M11.6 37.8a2.6 2.6 0 0 1-.6-1.7v.2a2.4 2.4 0 0 0 .6 1.7v-.2zM37.4 24.6l-6 3.4h.1l5.9-3.3c.8-.5 1.3-1.1 1.3-1.7a2.5 2.5 0 0 1-1.3 1.6z" opacity=".12" style="isolation:isolate"/><path fill="#fff" d="M14 8.2l23.4 13.3a2.2 2.2 0 0 1 1.3 1.6 2 2 0 0 0-1.3-1.7L14 8c-1.7-1-3-.2-3 1.8v.2c0-2 1.4-2.8 3-1.8z" opacity=".25" style="isolation:isolate"/><path fill="#fff" stroke="#fff" stroke-width=".2" stroke-miterlimit="10" d="M49.6 16.1h-.9v-2.4h.7a3.6 3.6 0 0 0 .9-2.8V7.4h4.8v6.3h.8v2.4H55v-1.5h-5.5v1.5zm1.6-5.1a4.9 4.9 0 0 1-.7 2.8h3.6V8.3h-3V11zM63.1 13.7a3.6 3.6 0 0 1-2.6 1.1 3.5 3.5 0 0 1-2.6-1.1 3.7 3.7 0 0 1-1.1-2.7 3.9 3.9 0 0 1 1.1-2.7 3.6 3.6 0 0 1 5.2 0 3.7 3.7 0 0 1 1.1 2.7 3.7 3.7 0 0 1-1.1 2.7zm-4.6-.6a2.8 2.8 0 0 0 2 .8 3 3 0 0 0 2-.8 2.9 2.9 0 0 0 .8-2.1 3.2 3.2 0 0 0-.8-2.1 2.8 2.8 0 0 0-2-.8 3 3 0 0 0-2 .8 2.9 2.9 0 0 0-.8 2.1 3 3 0 0 0 .8 2.1zM68.8 14.8a3.9 3.9 0 0 1-2.7-1.1A3.7 3.7 0 0 1 65 11a3.8 3.8 0 0 1 3.8-3.8 3.1 3.1 0 0 1 2.6 1.2l-.6.6a2.5 2.5 0 0 0-2-.9 3 3 0 0 0-2 .8A3.2 3.2 0 0 0 66 11a3 3 0 0 0 .8 2.1 2.8 2.8 0 0 0 2 .8 2.7 2.7 0 0 0 2.2-1l.6.6a2.7 2.7 0 0 1-1.2.9 2.9 2.9 0 0 1-1.6.4zM75.4 14.6h-.9V8.3h-2v-.9h4.9v.9h-2zM83.8 7.4l-2.7 6.1c-.4.9-.9 1.3-1.7 1.3l-.7-.2.2-.9h1a1.1 1.1 0 0 0 .3-.5l.3-.6L78 7.4h1.1l1.8 4.1 1.7-4.1zM84.8 14.6V7.4H90v7.2h-.9V8.3h-3.4v6.3zM91.7 14.6V7.4h.9v3.1h3.6V7.4h.9v7.2h-.9v-3.2h-3.6v3.2zM104.7 13.7a3.6 3.6 0 0 1-2.6 1.1 3.5 3.5 0 0 1-2.6-1.1 3.7 3.7 0 0 1-1.1-2.7 3.9 3.9 0 0 1 1.1-2.7 3.6 3.6 0 0 1 5.2 0 3.7 3.7 0 0 1 1.1 2.7 4.1 4.1 0 0 1-1.1 2.7zm-4.6-.6a2.8 2.8 0 0 0 2 .8 3 3 0 0 0 2-.8 2.9 2.9 0 0 0 .8-2.1 3.2 3.2 0 0 0-.8-2.1 2.8 2.8 0 0 0-2-.8 3 3 0 0 0-2 .8 2.9 2.9 0 0 0-.8 2.1 2.6 2.6 0 0 0 .8 2.1zM109.5 14.6V7.4h2.6a2 2 0 0 1 1.5.6 1.8 1.8 0 0 1 .6 1.4 1.6 1.6 0 0 1-.3.9 1.3 1.3 0 0 1-.7.6 1.8 1.8 0 0 1 .9.6 1.7 1.7 0 0 1 .3 1 2.1 2.1 0 0 1-2.1 2.1zm.9-4.1h1.7a1 1 0 0 0 1.1-1.1 1.3 1.3 0 0 0-.3-.8 1.1 1.1 0 0 0-.8-.3h-1.7zm0 3.2h1.9a1.1 1.1 0 0 0 .9-.4 1.2 1.2 0 0 0 0-1.6 1.3 1.3 0 0 0-.9-.4h-1.8v2.4z"/></svg>